<?xml version="1.0" encoding="UTF-8" standalone="no"?>
<!-- Created with Inkscape (http://www.inkscape.org/) -->

<svg
   xmlns:dc="http://purl.org/dc/elements/1.1/"
   xmlns:cc="http://creativecommons.org/ns#"
   xmlns:rdf="http://www.w3.org/1999/02/22-rdf-syntax-ns#"
   xmlns:svg="http://www.w3.org/2000/svg"
   xmlns="http://www.w3.org/2000/svg"
   xmlns:sodipodi="http://sodipodi.sourceforge.net/DTD/sodipodi-0.dtd"
   xmlns:inkscape="http://www.inkscape.org/namespaces/inkscape"
   inkscape:version="0.48.4 r9939"
   version="1.1"
   id="svg2"
   height="744.09448"
   width="2000"
   sodipodi:docname="New document 1">
  <defs
     id="defs4" />
  <sodipodi:namedview
     id="base"
     pagecolor="#ffffff"
     bordercolor="#666666"
     borderopacity="1.0"
     inkscape:pageopacity="0.0"
     inkscape:pageshadow="2"
     inkscape:zoom="0.35"
     inkscape:cx="946.97927"
     inkscape:cy="379.79695"
     inkscape:document-units="px"
     inkscape:current-layer="svg2"
     showgrid="true"
     inkscape:window-width="1280"
     inkscape:window-height="1001"
     inkscape:window-x="1920"
     inkscape:window-y="0"
     inkscape:window-maximized="1"
     showguides="true"
     inkscape:guide-bbox="true">
    <inkscape:grid
       type="xygrid"
       id="grid5392"
       empspacing="1"
       visible="true"
       enabled="false"
       snapvisiblegridlinesonly="true"
       dotted="false"
       spacingx="200px"
       spacingy="200px"
       originx="110px"
       originy="-10px" />
  </sodipodi:namedview>
  <metadata
     id="metadata7">
    <rdf:RDF>
      <cc:Work
         rdf:about="">
        <dc:format>image/svg+xml</dc:format>
        <dc:type
           rdf:resource="http://purl.org/dc/dcmitype/StillImage" />
        <dc:title></dc:title>
      </cc:Work>
    </rdf:RDF>
  </metadata>
  <g
     inkscape:label="Layer 1"
     inkscape:groupmode="layer"
     id="layer1"
     transform="translate(0,-308.2677)" />
  <g
     id="g5505">
    <path
       transform="translate(258.59905,66.670068)"
       d="m 286.88332,289.52585 a 34.345188,34.345188 0 1 1 -68.69038,0 34.345188,34.345188 0 1 1 68.69038,0 z"
       sodipodi:ry="34.345188"
       sodipodi:rx="34.345188"
       sodipodi:cy="289.52585"
       sodipodi:cx="252.53813"
       id="path5401"
       style="opacity:0.7;fill:#ff6600;fill-opacity:1;stroke:#000000;stroke-width:3;stroke-linecap:butt;stroke-linejoin:round;stroke-miterlimit:4;stroke-opacity:1;stroke-dasharray:none;stroke-dashoffset:0"
       sodipodi:type="arc" />
    <path
       transform="matrix(0.8,0,0,0.8,309.10668,324.57524)"
       d="m 286.88332,289.52585 a 34.345188,34.345188 0 1 1 -68.69038,0 34.345188,34.345188 0 1 1 68.69038,0 z"
       sodipodi:ry="34.345188"
       sodipodi:rx="34.345188"
       sodipodi:cy="289.52585"
       sodipodi:cx="252.53813"
       id="path5401-6"
       style="opacity:0.7;fill:#c8beb7;fill-opacity:1;stroke:#000000;stroke-width:3;stroke-linecap:butt;stroke-linejoin:round;stroke-miterlimit:4;stroke-opacity:1;stroke-dasharray:none;stroke-dashoffset:0"
       sodipodi:type="arc" />
    <path
       transform="matrix(0.8,0,0,0.8,109.10667,124.57524)"
       d="m 286.88332,289.52585 a 34.345188,34.345188 0 1 1 -68.69038,0 34.345188,34.345188 0 1 1 68.69038,0 z"
       sodipodi:ry="34.345188"
       sodipodi:rx="34.345188"
       sodipodi:cy="289.52585"
       sodipodi:cx="252.53813"
       id="path5401-6-8"
       style="opacity:0.7;fill:#c8beb7;fill-opacity:1;stroke:#000000;stroke-width:3;stroke-linecap:butt;stroke-linejoin:round;stroke-miterlimit:4;stroke-opacity:1;stroke-dasharray:none;stroke-dashoffset:0"
       sodipodi:type="arc" />
    <path
       transform="matrix(0.8,0,0,0.8,309.10668,-75.42476)"
       d="m 286.88332,289.52585 a 34.345188,34.345188 0 1 1 -68.69038,0 34.345188,34.345188 0 1 1 68.69038,0 z"
       sodipodi:ry="34.345188"
       sodipodi:rx="34.345188"
       sodipodi:cy="289.52585"
       sodipodi:cx="252.53813"
       id="path5401-6-1"
       style="opacity:0.7;fill:#c8beb7;fill-opacity:1;stroke:#000000;stroke-width:3;stroke-linecap:butt;stroke-linejoin:round;stroke-miterlimit:4;stroke-opacity:1;stroke-dasharray:none;stroke-dashoffset:0"
       sodipodi:type="arc" />
    <path
       transform="matrix(0.8,0,0,0.8,509.10668,124.57524)"
       d="m 286.88332,289.52585 a 34.345188,34.345188 0 1 1 -68.69038,0 34.345188,34.345188 0 1 1 68.69038,0 z"
       sodipodi:ry="34.345188"
       sodipodi:rx="34.345188"
       sodipodi:cy="289.52585"
       sodipodi:cx="252.53813"
       id="path5401-6-7"
       style="opacity:0.7;fill:#c8beb7;fill-opacity:1;stroke:#000000;stroke-width:3;stroke-linecap:butt;stroke-linejoin:round;stroke-miterlimit:4;stroke-opacity:1;stroke-dasharray:none;stroke-dashoffset:0"
       sodipodi:type="arc" />
    <path
       transform="matrix(0.648,0,0,0.648,462.64987,39.293851)"
       d="m 286.88332,289.52585 a 34.345188,34.345188 0 1 1 -68.69038,0 34.345188,34.345188 0 1 1 68.69038,0 z"
       sodipodi:ry="34.345188"
       sodipodi:rx="34.345188"
       sodipodi:cy="289.52585"
       sodipodi:cx="252.53813"
       id="path5401-6-1-8"
       style="opacity:0.7;fill:#c8beb7;fill-opacity:1;stroke:#000000;stroke-width:3;stroke-linecap:butt;stroke-linejoin:round;stroke-miterlimit:4;stroke-opacity:1;stroke-dasharray:none;stroke-dashoffset:0"
       sodipodi:type="arc" />
    <path
       transform="matrix(1.0648,0,0,1.0648,114.96556,181.23873)"
       d="m 286.88332,289.52585 a 34.345188,34.345188 0 1 1 -68.69038,0 34.345188,34.345188 0 1 1 68.69038,0 z"
       sodipodi:ry="34.345188"
       sodipodi:rx="34.345188"
       sodipodi:cy="289.52585"
       sodipodi:cx="252.53813"
       id="path5401-6-1-89"
       style="opacity:0.7;fill:#c8beb7;fill-opacity:1;stroke:#000000;stroke-width:3;stroke-linecap:butt;stroke-linejoin:round;stroke-miterlimit:4;stroke-opacity:1;stroke-dasharray:none;stroke-dashoffset:0"
       sodipodi:type="arc" />
    <path
       inkscape:connector-curvature="0"
       id="path5499"
       d="m 309.10668,356.19591 c 400.89332,0 400.89332,0 400.89332,0"
       style="fill:none;stroke:#000000;stroke-width:3;stroke-linecap:butt;stroke-linejoin:miter;stroke-miterlimit:4;stroke-opacity:1;stroke-dasharray:none" />
    <path
       inkscape:connector-curvature="0"
       id="path5501"
       d="m 511.13719,158.20601 c 0,395.88847 0,395.88847 0,395.88847 l 0,0"
       style="fill:none;stroke:#000000;stroke-width:3;stroke-linecap:butt;stroke-linejoin:miter;stroke-miterlimit:4;stroke-opacity:1;stroke-dasharray:none" />
    <path
       sodipodi:nodetypes="cc"
       inkscape:connector-curvature="0"
       id="path5503"
       d="M 383.85797,491.55635 C 642.45702,216.79485 629.1878,228.84577 629.1878,228.84577"
       style="fill:none;stroke:#000000;stroke-width:3;stroke-linecap:butt;stroke-linejoin:miter;stroke-miterlimit:4;stroke-opacity:1;stroke-dasharray:none" />
  </g>
  <path
     sodipodi:type="arc"
     style="opacity:0.7;fill:#ff6600;fill-opacity:1;stroke:#000000;stroke-width:3;stroke-linecap:butt;stroke-linejoin:round;stroke-miterlimit:4;stroke-opacity:1;stroke-dasharray:none;stroke-dashoffset:0"
     id="path5401-2"
     sodipodi:cx="252.53813"
     sodipodi:cy="289.52585"
     sodipodi:rx="34.345188"
     sodipodi:ry="34.345188"
     d="m 286.88332,289.52585 a 34.345188,34.345188 0 1 1 -68.69038,0 34.345188,34.345188 0 1 1 68.69038,0 z"
     transform="translate(1058.5991,66.670072)" />
  <path
     sodipodi:type="arc"
     style="opacity:0.7;fill:#c8beb7;fill-opacity:1;stroke:#000000;stroke-width:3;stroke-linecap:butt;stroke-linejoin:round;stroke-miterlimit:4;stroke-opacity:1;stroke-dasharray:none;stroke-dashoffset:0"
     id="path5401-6-3"
     sodipodi:cx="252.53813"
     sodipodi:cy="289.52585"
     sodipodi:rx="34.345188"
     sodipodi:ry="34.345188"
     d="m 286.88332,289.52585 a 34.345188,34.345188 0 1 1 -68.69038,0 34.345188,34.345188 0 1 1 68.69038,0 z"
     transform="matrix(0.8,0,0,0.8,1109.1067,324.57524)" />
  <path
     sodipodi:type="arc"
     style="opacity:0.7;fill:#c8beb7;fill-opacity:1;stroke:#000000;stroke-width:3;stroke-linecap:butt;stroke-linejoin:round;stroke-miterlimit:4;stroke-opacity:1;stroke-dasharray:none;stroke-dashoffset:0"
     id="path5401-6-8-4"
     sodipodi:cx="252.53813"
     sodipodi:cy="289.52585"
     sodipodi:rx="34.345188"
     sodipodi:ry="34.345188"
     d="m 286.88332,289.52585 a 34.345188,34.345188 0 1 1 -68.69038,0 34.345188,34.345188 0 1 1 68.69038,0 z"
     transform="matrix(0.8,0,0,0.8,909.10667,124.57524)" />
  <path
     sodipodi:type="arc"
     style="opacity:0.7;fill:#c8beb7;fill-opacity:1;stroke:#000000;stroke-width:3;stroke-linecap:butt;stroke-linejoin:round;stroke-miterlimit:4;stroke-opacity:1;stroke-dasharray:none;stroke-dashoffset:0"
     id="path5401-6-1-0"
     sodipodi:cx="252.53813"
     sodipodi:cy="289.52585"
     sodipodi:rx="34.345188"
     sodipodi:ry="34.345188"
     d="m 286.88332,289.52585 a 34.345188,34.345188 0 1 1 -68.69038,0 34.345188,34.345188 0 1 1 68.69038,0 z"
     transform="matrix(0.8,0,0,0.8,1109.1067,-75.424756)" />
  <path
     sodipodi:type="arc"
     style="opacity:0.7;fill:#c8beb7;fill-opacity:1;stroke:#000000;stroke-width:3;stroke-linecap:butt;stroke-linejoin:round;stroke-miterlimit:4;stroke-opacity:1;stroke-dasharray:none;stroke-dashoffset:0"
     id="path5401-6-7-1"
     sodipodi:cx="252.53813"
     sodipodi:cy="289.52585"
     sodipodi:rx="34.345188"
     sodipodi:ry="34.345188"
     d="m 286.88332,289.52585 a 34.345188,34.345188 0 1 1 -68.69038,0 34.345188,34.345188 0 1 1 68.69038,0 z"
     transform="matrix(0.8,0,0,0.8,1309.1067,124.57524)" />
  <path
     sodipodi:type="arc"
     style="opacity:0.7;fill:#c8beb7;fill-opacity:1;stroke:#000000;stroke-width:3;stroke-linecap:butt;stroke-linejoin:round;stroke-miterlimit:4;stroke-opacity:1;stroke-dasharray:none;stroke-dashoffset:0"
     id="path5401-6-1-8-5"
     sodipodi:cx="252.53813"
     sodipodi:cy="289.52585"
     sodipodi:rx="34.345188"
     sodipodi:ry="34.345188"
     d="m 286.88332,289.52585 a 34.345188,34.345188 0 1 1 -68.69038,0 34.345188,34.345188 0 1 1 68.69038,0 z"
     transform="matrix(0.648,0,0,0.648,1262.6499,39.293855)" />
  <path
     sodipodi:type="arc"
     style="opacity:0.7;fill:#c8beb7;fill-opacity:1;stroke:#000000;stroke-width:3;stroke-linecap:butt;stroke-linejoin:round;stroke-miterlimit:4;stroke-opacity:1;stroke-dasharray:none;stroke-dashoffset:0"
     id="path5401-6-1-89-8"
     sodipodi:cx="252.53813"
     sodipodi:cy="289.52585"
     sodipodi:rx="34.345188"
     sodipodi:ry="34.345188"
     d="m 286.88332,289.52585 a 34.345188,34.345188 0 1 1 -68.69038,0 34.345188,34.345188 0 1 1 68.69038,0 z"
     transform="matrix(1.0648,0,0,1.0648,920.96556,179.23873)" />
  <path
     style="fill:none;stroke:#000000;stroke-width:3;stroke-linecap:butt;stroke-linejoin:miter;stroke-miterlimit:4;stroke-opacity:1;stroke-dasharray:none"
     d="m 1109.1067,356.19591 c 400.8933,0 400.8933,0 400.8933,0"
     id="path5499-4"
     inkscape:connector-curvature="0" />
  <path
     style="fill:none;stroke:#000000;stroke-width:3;stroke-linecap:butt;stroke-linejoin:miter;stroke-miterlimit:4;stroke-opacity:1;stroke-dasharray:none"
     d="m 1311.1372,158.20601 c 0,395.88847 0,395.88847 0,395.88847 l 0,0"
     id="path5501-6"
     inkscape:connector-curvature="0" />
  <path
     style="fill:none;stroke:#000000;stroke-width:3;stroke-linecap:butt;stroke-linejoin:miter;stroke-miterlimit:4;stroke-opacity:1;stroke-dasharray:none"
     d="m 1183.858,491.55635 c 258.599,-274.7615 245.3298,-262.71058 245.3298,-262.71058"
     id="path5503-8"
     inkscape:connector-curvature="0"
     sodipodi:nodetypes="cc" />
  <path
     sodipodi:type="arc"
     style="opacity:0.7;fill:#c8beb7;fill-opacity:1;stroke:#000000;stroke-width:3;stroke-linecap:butt;stroke-linejoin:round;stroke-miterlimit:4;stroke-opacity:1;stroke-dasharray:none;stroke-dashoffset:0"
     id="path5401-6-1-0-2"
     sodipodi:cx="252.53813"
     sodipodi:cy="289.52585"
     sodipodi:rx="34.345188"
     sodipodi:ry="34.345188"
     d="m 286.88332,289.52585 a 34.345188,34.345188 0 1 1 -68.69038,0 34.345188,34.345188 0 1 1 68.69038,0 z"
     transform="matrix(0.8,0,0,0.8,1309.1067,-75.424756)" />
  <path
     sodipodi:type="arc"
     style="opacity:0.7;fill:#c8beb7;fill-opacity:1;stroke:#000000;stroke-width:3;stroke-linecap:butt;stroke-linejoin:round;stroke-miterlimit:4;stroke-opacity:1;stroke-dasharray:none;stroke-dashoffset:0"
     id="path5401-6-1-0-5"
     sodipodi:cx="252.53813"
     sodipodi:cy="289.52585"
     sodipodi:rx="34.345188"
     sodipodi:ry="34.345188"
     d="m 286.88332,289.52585 a 34.345188,34.345188 0 1 1 -68.69038,0 34.345188,34.345188 0 1 1 68.69038,0 z"
     transform="matrix(0.8,0,0,0.8,1309.1067,324.57524)" />
  <path
     sodipodi:type="arc"
     style="opacity:0.7;fill:#c8beb7;fill-opacity:1;stroke:#000000;stroke-width:3;stroke-linecap:butt;stroke-linejoin:round;stroke-miterlimit:4;stroke-opacity:1;stroke-dasharray:none;stroke-dashoffset:0"
     id="path5401-6-1-0-1"
     sodipodi:cx="252.53813"
     sodipodi:cy="289.52585"
     sodipodi:rx="34.345188"
     sodipodi:ry="34.345188"
     d="m 286.88332,289.52585 a 34.345188,34.345188 0 1 1 -68.69038,0 34.345188,34.345188 0 1 1 68.69038,0 z"
     transform="matrix(0.8,0,0,0.8,909.10665,324.57524)" />
  <path
     sodipodi:type="arc"
     style="opacity:0.7;fill:#c8beb7;fill-opacity:1;stroke:#000000;stroke-width:3;stroke-linecap:butt;stroke-linejoin:round;stroke-miterlimit:4;stroke-opacity:1;stroke-dasharray:none;stroke-dashoffset:0"
     id="path5401-6-1-0-4"
     sodipodi:cx="252.53813"
     sodipodi:cy="289.52585"
     sodipodi:rx="34.345188"
     sodipodi:ry="34.345188"
     d="m 286.88332,289.52585 a 34.345188,34.345188 0 1 1 -68.69038,0 34.345188,34.345188 0 1 1 68.69038,0 z"
     transform="matrix(0.8,0,0,0.8,909.10665,-75.424756)" />
  <path
     inkscape:connector-curvature="0"
     id="path5611"
     d="M 1111.4286,155.52305 C 1310,354.09448 1310,354.09448 1310,354.09448"
     style="fill:none;stroke:#000000;stroke-width:3;stroke-linecap:butt;stroke-linejoin:miter;stroke-miterlimit:4;stroke-opacity:1;stroke-dasharray:none" />
  <path
     inkscape:connector-curvature="0"
     id="path5611-3"
     d="M 1311.4286,355.52305 C 1510,554.09448 1510,554.09448 1510,554.09448"
     style="fill:none;stroke:#000000;stroke-width:3;stroke-linecap:butt;stroke-linejoin:miter;stroke-miterlimit:4;stroke-opacity:1;stroke-dasharray:none" />
  <path
     style="fill:none;stroke:#000000;stroke-width:3;stroke-linecap:butt;stroke-linejoin:miter;stroke-opacity:1;stroke-miterlimit:4;stroke-dasharray:none"
     d="M 1311.4286,358.3802 C 1515.7143,154.09448 1515.7143,154.09448 1515.7143,154.09448"
     id="path5638"
     inkscape:connector-curvature="0" />
  <path
     style="fill:none;stroke:#000000;stroke-width:3;stroke-linecap:butt;stroke-linejoin:miter;stroke-miterlimit:4;stroke-opacity:1;stroke-dasharray:none"
     d="M 1111.4286,558.3802 C 1315.7143,354.09448 1315.7143,354.09448 1315.7143,354.09448"
     id="path5638-7"
     inkscape:connector-curvature="0" />
  <path
     sodipodi:type="arc"
     style="opacity:0.7;fill:#c8beb7;fill-opacity:1;stroke:#000000;stroke-width:3;stroke-linecap:butt;stroke-linejoin:round;stroke-miterlimit:4;stroke-opacity:1;stroke-dasharray:none;stroke-dashoffset:0"
     id="path5401-6-1-8-5-4"
     sodipodi:cx="252.53813"
     sodipodi:cy="289.52585"
     sodipodi:rx="34.345188"
     sodipodi:ry="34.345188"
     d="m 286.88332,289.52585 a 34.345188,34.345188 0 1 1 -68.69038,0 34.345188,34.345188 0 1 1 68.69038,0 z"
     transform="matrix(0.648,0,0,0.648,1268.3642,-134.99186)" />
  <path
     sodipodi:type="arc"
     style="opacity:0.7;fill:#c8beb7;fill-opacity:1;stroke:#000000;stroke-width:3;stroke-linecap:butt;stroke-linejoin:round;stroke-miterlimit:4;stroke-opacity:1;stroke-dasharray:none;stroke-dashoffset:0"
     id="path5401-6-1-8-5-2"
     sodipodi:cx="252.53813"
     sodipodi:cy="289.52585"
     sodipodi:rx="34.345188"
     sodipodi:ry="34.345188"
     d="m 286.88332,289.52585 a 34.345188,34.345188 0 1 1 -68.69038,0 34.345188,34.345188 0 1 1 68.69038,0 z"
     transform="matrix(0.648,0,0,0.648,1271.2213,242.151)" />
  <path
     sodipodi:type="arc"
     style="opacity:0.7;fill:#c8beb7;fill-opacity:1;stroke:#000000;stroke-width:3;stroke-linecap:butt;stroke-linejoin:round;stroke-miterlimit:4;stroke-opacity:1;stroke-dasharray:none;stroke-dashoffset:0"
     id="path5401-6-1-89-8-9"
     sodipodi:cx="252.53813"
     sodipodi:cy="289.52585"
     sodipodi:rx="34.345188"
     sodipodi:ry="34.345188"
     d="m 286.88332,289.52585 a 34.345188,34.345188 0 1 1 -68.69038,0 34.345188,34.345188 0 1 1 68.69038,0 z"
     transform="matrix(1.0648,0,0,1.0648,923.82269,376.38159)" />
  <path
     sodipodi:type="arc"
     style="opacity:0.7;fill:#c8beb7;fill-opacity:1;stroke:#000000;stroke-width:3;stroke-linecap:butt;stroke-linejoin:round;stroke-miterlimit:4;stroke-opacity:1;stroke-dasharray:none;stroke-dashoffset:0"
     id="path5401-6-1-89-8-0"
     sodipodi:cx="252.53813"
     sodipodi:cy="289.52585"
     sodipodi:rx="34.345188"
     sodipodi:ry="34.345188"
     d="m 286.88332,289.52585 a 34.345188,34.345188 0 1 1 -68.69038,0 34.345188,34.345188 0 1 1 68.69038,0 z"
     transform="matrix(1.0648,0,0,1.0648,923.82269,-20.761275)" />
  <path
     style="fill:none;stroke:#000000;stroke-width:3;stroke-linecap:butt;stroke-linejoin:miter;stroke-opacity:1;stroke-miterlimit:4;stroke-dasharray:none"
     d="m 1188.5714,289.80877 c 121.8352,70.34156 121.8352,70.34156 121.8352,70.34156"
     id="path5733"
     inkscape:connector-curvature="0" />
  <path
     style="fill:none;stroke:#000000;stroke-width:3;stroke-linecap:butt;stroke-linejoin:miter;stroke-opacity:1;stroke-miterlimit:4;stroke-dasharray:none"
     d="m 1188.5714,686.95163 c 120,-334.28572 120,-334.28572 120,-334.28572"
     id="path5735"
     inkscape:connector-curvature="0" />
  <path
     style="fill:none;stroke:#000000;stroke-width:3;stroke-linecap:butt;stroke-linejoin:miter;stroke-opacity:1;stroke-miterlimit:4;stroke-dasharray:none"
     d="m 1431.4286,49.808768 c -120,305.714282 -120,305.714282 -120,305.714282"
     id="path5737"
     inkscape:connector-curvature="0" />
  <path
     style="fill:none;stroke:#000000;stroke-width:3;stroke-linecap:butt;stroke-linejoin:miter;stroke-opacity:1;stroke-miterlimit:4;stroke-dasharray:none"
     d="m 1434.2857,429.80877 c -120,-71.42857 -122.8571,-71.42857 -122.8571,-71.42857"
     id="path5739"
     inkscape:connector-curvature="0" />
</svg>
